{
  "asset": {
    "version": "2.0",
    "generator": "3dpea GLTFExporter"
  },
  "scenes": [
    {
      "name": "AuxScene",
      "nodes": [
        9
      ]
    }
  ],
  "scene": 0,
  "nodes": [
    {
      "name": "Object_4",
      "extras": {
        "name": "Object_4"
      },
      "mesh": 0
    },
    {
      "name": "Object_5",
      "extras": {
        "name": "Object_5"
      },
      "mesh": 1
    },
    {
      "name": "Object_6",
      "extras": {
        "name": "Object_6"
      },
      "mesh": 2
    },
    {
      "name": "Object_7",
      "extras": {
        "name": "Object_7"
      },
      "mesh": 3
    },
    {
      "name": "Object_8",
      "extras": {
        "name": "Object_8"
      },
      "mesh": 4
    },
    {
      "matrix": [
        1.685874690462536e-11,
        7.549792939227952e-12,
        -0.00010000004112953148,
        0,
        -7.54979293922795e-12,
        -0.00010000004112953259,
        -7.549794212027996e-12,
        0,
        -0.00010000004112953148,
        7.549794212027998e-12,
        -1.6858746316206915e-11,
        0,
        0,
        0,
        0,
        1
      ],
      "name": "Tokyo_Building019_0",
      "extras": {
        "name": "Tokyo_Building.019_0"
      },
      "children": [
        0,
        1,
        2,
        3,
        4
      ]
    },
    {
      "matrix": [
        1,
        0,
        0,
        0,
        0,
        2.220446049250313e-16,
        1,
        0,
        0,
        -1,
        2.220446049250313e-16,
        0,
        0,
        0,
        0,
        1
      ],
      "name": "GLTF_SceneRootNode",
      "extras": {
        "name": "GLTF_SceneRootNode"
      },
      "children": [
        5
      ]
    },
    {
      "name": "root",
      "extras": {
        "name": "root"
      },
      "children": [
        6
      ]
    },
    {
      "matrix": [
        1,
        0,
        0,
        0,
        0,
        2.220446049250313e-16,
        -1,
        0,
        0,
        1,
        2.220446049250313e-16,
        0,
        0,
        0,
        0,
        1
      ],
      "name": "Sketchfab_model",
      "extras": {
        "name": "Sketchfab_model"
      },
      "children": [
        7
      ]
    },
    {
      "name": "building_no_19_form_tokyo_otemachi_building_pack",
      "extras": {
        "additionalData": []
      },
      "children": [
        8
      ]
    }
  ],
  "bufferViews": [
    {
      "buffer": 0,
      "byteOffset": 0,
      "byteLength": 247920,
      "target": 34962,
      "byteStride": 12
    },
    {
      "buffer": 0,
      "byteOffset": 247920,
      "byteLength": 247920,
      "target": 34962,
      "byteStride": 12
    },
    {
      "buffer": 0,
      "byteOffset": 495840,
      "byteLength": 165280,
      "target": 34962,
      "byteStride": 8
    },
    {
      "buffer": 0,
      "byteOffset": 661120,
      "byteLength": 143760,
      "target": 34963
    },
    {
      "buffer": 0,
      "byteOffset": 804880,
      "byteLength": 768,
      "target": 34962,
      "byteStride": 12
    },
    {
      "buffer": 0,
      "byteOffset": 805648,
      "byteLength": 768,
      "target": 34962,
      "byteStride": 12
    },
    {
      "buffer": 0,
      "byteOffset": 806416,
      "byteLength": 512,
      "target": 34962,
      "byteStride": 8
    },
    {
      "buffer": 0,
      "byteOffset": 806928,
      "byteLength": 384,
      "target": 34963
    },
    {
      "buffer": 0,
      "byteOffset": 807312,
      "byteLength": 45000,
      "target": 34962,
      "byteStride": 12
    },
    {
      "buffer": 0,
      "byteOffset": 852312,
      "byteLength": 45000,
      "target": 34962,
      "byteStride": 12
    },
    {
      "buffer": 0,
      "byteOffset": 897312,
      "byteLength": 30000,
      "target": 34962,
      "byteStride": 8
    },
    {
      "buffer": 0,
      "byteOffset": 927312,
      "byteLength": 25128,
      "target": 34963
    },
    {
      "buffer": 0,
      "byteOffset": 952440,
      "byteLength": 3240,
      "target": 34962,
      "byteStride": 12
    },
    {
      "buffer": 0,
      "byteOffset": 955680,
      "byteLength": 3240,
      "target": 34962,
      "byteStride": 12
    },
    {
      "buffer": 0,
      "byteOffset": 958920,
      "byteLength": 2160,
      "target": 34962,
      "byteStride": 8
    },
    {
      "buffer": 0,
      "byteOffset": 961080,
      "byteLength": 1920,
      "target": 34963
    },
    {
      "buffer": 0,
      "byteOffset": 963000,
      "byteLength": 4644,
      "target": 34962,
      "byteStride": 12
    },
    {
      "buffer": 0,
      "byteOffset": 967644,
      "byteLength": 4644,
      "target": 34962,
      "byteStride": 12
    },
    {
      "buffer": 0,
      "byteOffset": 972288,
      "byteLength": 3096,
      "target": 34962,
      "byteStride": 8
    },
    {
      "buffer": 0,
      "byteOffset": 975384,
      "byteLength": 3600,
      "target": 34963
    }
  ],
  "buffers": [
    {
      "byteLength": 978984,
      "uri": "data:application/octet-stream;base64,"
    }
  ],
  "accessors": [
    {
      "bufferView": 0,
      "componentType": 5126,
      "count": 20660,
      "max": [
        1,
        1,
        1
      ],
      "min": [
        -1,
        -1,
        -1
      ],
      "type": "VEC3"
    },
    {
      "bufferView": 1,
      "componentType": 5126,
      "count": 20660,
      "max": [
        450408.4375,
        -0.0762939453125,
        450408.3125
      ],
      "min": [
        -450408.3125,
        -1526000.25,
        -450407.3125
      ],
      "type": "VEC3"
    },
    {
      "bufferView": 2,
      "componentType": 5126,
      "count": 20660,
      "max": [
        2050.0419921875,
        2050.0419921875
      ],
      "min": [
        -2050.0419921875,
        -5417.32275390625
      ],
      "type": "VEC2"
    },
    {
      "bufferView": 3,
      "componentType": 5125,
      "count": 35940,
      "max": [
        20659
      ],
      "min": [
        0
      ],
      "type": "SCALAR"
    },
    {
      "bufferView": 4,
      "componentType": 5126,
      "count": 64,
      "max": [
        0.7071133255958557,
        0,
        0.7071138024330139
      ],
      "min": [
        -0.7071087956428528,
        -1,
        -0.7071167826652527
      ],
      "type": "VEC3"
    },
    {
      "bufferView": 5,
      "componentType": 5126,
      "count": 64,
      "max": [
        279058.53125,
        -1451000.25,
        279058.3125
      ],
      "min": [
        -279058.53125,
        -1521000.25,
        -279057.3125
      ],
      "type": "VEC3"
    },
    {
      "bufferView": 6,
      "componentType": 5126,
      "count": 64,
      "max": [
        1212.598388671875,
        275.59051513671875
      ],
      "min": [
        -354.3306884765625,
        0
      ],
      "type": "VEC2"
    },
    {
      "bufferView": 7,
      "componentType": 5125,
      "count": 96,
      "max": [
        63
      ],
      "min": [
        0
      ],
      "type": "SCALAR"
    },
    {
      "bufferView": 8,
      "componentType": 5126,
      "count": 3750,
      "max": [
        1,
        0,
        1
      ],
      "min": [
        -1,
        -1,
        -1
      ],
      "type": "VEC3"
    },
    {
      "bufferView": 9,
      "componentType": 5126,
      "count": 3750,
      "max": [
        450408.4375,
        -0.0762939453125,
        450408.3125
      ],
      "min": [
        -450408.3125,
        -1521000.25,
        -450407.3125
      ],
      "type": "VEC3"
    },
    {
      "bufferView": 10,
      "componentType": 5126,
      "count": 3750,
      "max": [
        1811.023681640625,
        1811.023681640625
      ],
      "min": [
        -1660.2783203125,
        -157.4803009033203
      ],
      "type": "VEC2"
    },
    {
      "bufferView": 11,
      "componentType": 5125,
      "count": 6282,
      "max": [
        3749
      ],
      "min": [
        0
      ],
      "type": "SCALAR"
    },
    {
      "bufferView": 12,
      "componentType": 5126,
      "count": 270,
      "max": [
        1,
        0,
        1
      ],
      "min": [
        -1,
        -1,
        -1
      ],
      "type": "VEC3"
    },
    {
      "bufferView": 13,
      "componentType": 5126,
      "count": 270,
      "max": [
        437691.46875,
        -1430000.25,
        437691.125
      ],
      "min": [
        -437691.5,
        -1526000.25,
        -437691.6875
      ],
      "type": "VEC3"
    },
    {
      "bufferView": 14,
      "componentType": 5126,
      "count": 270,
      "max": [
        2019.660400390625,
        2019.660400390625
      ],
      "min": [
        -1704.6998291015625,
        30.38159942626953
      ],
      "type": "VEC2"
    },
    {
      "bufferView": 15,
      "componentType": 5125,
      "count": 480,
      "max": [
        269
      ],
      "min": [
        0
      ],
      "type": "SCALAR"
    },
    {
      "bufferView": 16,
      "componentType": 5126,
      "count": 387,
      "max": [
        0.7071476578712463,
        1,
        0.7071436643600464
      ],
      "min": [
        -0.7071563601493835,
        -1,
        -0.7071453332901001
      ],
      "type": "VEC3"
    },
    {
      "bufferView": 17,
      "componentType": 5126,
      "count": 387,
      "max": [
        387043.21875,
        -129513.4375,
        387042.6875
      ],
      "min": [
        -387043.09375,
        -1451000.25,
        -387043.25
      ],
      "type": "VEC3"
    },
    {
      "bufferView": 18,
      "componentType": 5126,
      "count": 387,
      "max": [
        1610.1580810546875,
        1610.1580810546875
      ],
      "min": [
        -891.99267578125,
        -480.9081115722656
      ],
      "type": "VEC2"
    },
    {
      "bufferView": 19,
      "componentType": 5125,
      "count": 900,
      "max": [
        386
      ],
      "min": [
        0
      ],
      "type": "SCALAR"
    }
  ],
  "materials": [
    {
      "pbrMetallicRoughness": {
        "baseColorFactor": [
          0.350553,
          0.350553,
          0.350553,
          1
        ],
        "metallicFactor": 0,
        "roughnessFactor": 1
      },
      "doubleSided": true,
      "name": "Mtl_Concrete"
    },
    {
      "pbrMetallicRoughness": {
        "metallicFactor": 0.821335836452073,
        "roughnessFactor": 0.235294
      },
      "doubleSided": true,
      "name": "Mtl_RoofItems"
    },
    {
      "pbrMetallicRoughness": {
        "baseColorFactor": [
          0.013297700000000003,
          0.013989499999999997,
          0.027191599999999996,
          1
        ],
        "metallicFactor": 1,
        "roughnessFactor": 0
      },
      "doubleSided": true,
      "name": "Mtl_Glass"
    },
    {
      "pbrMetallicRoughness": {
        "baseColorFactor": [
          0.0107023,
          0.0126854,
          0.0219787,
          1
        ],
        "metallicFactor": 0.5104777462178932,
        "roughnessFactor": 0.5
      },
      "doubleSided": true,
      "name": "Mtl_DifferentRow"
    },
    {
      "pbrMetallicRoughness": {
        "baseColorFactor": [
          0,
          0,
          0,
          1
        ],
        "metallicFactor": 0,
        "roughnessFactor": 1
      },
      "doubleSided": true,
      "name": "Mtl_Roof"
    }
  ],
  "meshes": [
    {
      "primitives": [
        {
          "mode": 4,
          "attributes": {
            "NORMAL": 0,
            "POSITION": 1,
            "TEXCOORD_0": 2
          },
          "indices": 3,
          "material": 0
        }
      ]
    },
    {
      "primitives": [
        {
          "mode": 4,
          "attributes": {
            "NORMAL": 4,
            "POSITION": 5,
            "TEXCOORD_0": 6
          },
          "indices": 7,
          "material": 1
        }
      ]
    },
    {
      "primitives": [
        {
          "mode": 4,
          "attributes": {
            "NORMAL": 8,
            "POSITION": 9,
            "TEXCOORD_0": 10
          },
          "indices": 11,
          "material": 2
        }
      ]
    },
    {
      "primitives": [
        {
          "mode": 4,
          "attributes": {
            "NORMAL": 12,
            "POSITION": 13,
            "TEXCOORD_0": 14
          },
          "indices": 15,
          "material": 3
        }
      ]
    },
    {
      "primitives": [
        {
          "mode": 4,
          "attributes": {
            "NORMAL": 16,
            "POSITION": 17,
            "TEXCOORD_0": 18
          },
          "indices": 19,
          "material": 4
        }
      ]
    }
  ]
}