{
  "asset": {
    "version": "2.0",
    "generator": "3dpea GLTFExporter"
  },
  "scenes": [
    {
      "name": "AuxScene",
      "nodes": [
        7
      ]
    }
  ],
  "scene": 0,
  "nodes": [
    {
      "name": "PublicBuilding_10_Pack3_0",
      "extras": {
        "name": "PublicBuilding_10_Pack3_0"
      },
      "mesh": 0
    },
    {
      "matrix": [
        100,
        0,
        0,
        0,
        0,
        99.99999999999865,
        0.000016292067073209118,
        0,
        0,
        -0.000016292067073209118,
        99.99999999999865,
        0,
        0,
        0,
        0,
        1
      ],
      "name": "PublicBuilding_10",
      "extras": {
        "name": "PublicBuilding_10"
      },
      "children": [
        0
      ]
    },
    {
      "name": "Collider_Collider_0",
      "extras": {
        "name": "Collider_Collider_0"
      },
      "mesh": 1
    },
    {
      "matrix": [
        199.0469512939453,
        0,
        0,
        0,
        0,
        -0.00005990842161013662,
        -367.71527099608886,
        0,
        0,
        199.04695129394264,
        -0.00003242886444728774,
        0,
        0,
        379.366455078125,
        0,
        1
      ],
      "name": "Collider",
      "extras": {
        "name": "Collider"
      },
      "children": [
        2
      ]
    },
    {
      "name": "RootNode",
      "extras": {
        "name": "RootNode"
      },
      "children": [
        1,
        3
      ]
    },
    {
      "matrix": [
        0.009999999776482582,
        0,
        0,
        0,
        0,
        2.2204459996194763e-18,
        0.009999999776482582,
        0,
        0,
        -0.009999999776482582,
        2.2204459996194763e-18,
        0,
        0,
        0,
        0,
        1
      ],
      "name": "PublicBuilding_10Cfbx",
      "extras": {
        "name": "PublicBuilding_10C.fbx"
      },
      "children": [
        4
      ]
    },
    {
      "matrix": [
        1,
        0,
        0,
        0,
        0,
        2.220446049250313e-16,
        -1,
        0,
        0,
        1,
        2.220446049250313e-16,
        0,
        0,
        0,
        0,
        1
      ],
      "name": "Sketchfab_model",
      "extras": {
        "name": "Sketchfab_model"
      },
      "children": [
        5
      ]
    },
    {
      "name": "low_poly_apartment_building_1",
      "extras": {
        "additionalData": []
      },
      "children": [
        6
      ]
    }
  ],
  "bufferViews": [
    {
      "buffer": 0,
      "byteOffset": 0,
      "byteLength": 286824,
      "target": 34962,
      "byteStride": 12
    },
    {
      "buffer": 0,
      "byteOffset": 286824,
      "byteLength": 286824,
      "target": 34962,
      "byteStride": 12
    },
    {
      "buffer": 0,
      "byteOffset": 573648,
      "byteLength": 191216,
      "target": 34962,
      "byteStride": 8
    },
    {
      "buffer": 0,
      "byteOffset": 764864,
      "byteLength": 193128,
      "target": 34963
    },
    {
      "buffer": 0,
      "byteOffset": 957992,
      "byteLength": 10152,
      "target": 34962,
      "byteStride": 12
    },
    {
      "buffer": 0,
      "byteOffset": 968144,
      "byteLength": 10152,
      "target": 34962,
      "byteStride": 12
    },
    {
      "buffer": 0,
      "byteOffset": 978296,
      "byteLength": 6768,
      "target": 34962,
      "byteStride": 8
    },
    {
      "buffer": 0,
      "byteOffset": 985064,
      "byteLength": 5472,
      "target": 34963
    }
  ],
  "buffers": [
    {
      "byteLength": 990536,
      "uri": "data:application/octet-stream;base64,"
    }
  ],
  "accessors": [
    {
      "bufferView": 0,
      "componentType": 5126,
      "count": 23902,
      "max": [
        1,
        1,
        1
      ],
      "min": [
        -1,
        -1,
        -1
      ],
      "type": "VEC3"
    },
    {
      "bufferView": 1,
      "componentType": 5126,
      "count": 23902,
      "max": [
        2.095060110092163,
        6.934330940246582,
        3.77828311920166
      ],
      "min": [
        -2.2269160747528076,
        0,
        -3.77828311920166
      ],
      "type": "VEC3"
    },
    {
      "bufferView": 2,
      "componentType": 5126,
      "count": 23902,
      "max": [
        0.2819490134716034,
        0.4068950116634369
      ],
      "min": [
        0.031161997467279434,
        0.029482999816536903
      ],
      "type": "VEC2"
    },
    {
      "bufferView": 3,
      "componentType": 5125,
      "count": 48282,
      "max": [
        23901
      ],
      "min": [
        0
      ],
      "type": "SCALAR"
    },
    {
      "bufferView": 4,
      "componentType": 5126,
      "count": 846,
      "max": [
        1,
        1,
        1
      ],
      "min": [
        -1,
        -1,
        -1
      ],
      "type": "VEC3"
    },
    {
      "bufferView": 5,
      "componentType": 5126,
      "count": 846,
      "max": [
        1,
        1,
        1.5780822038650513
      ],
      "min": [
        -1.1194971799850464,
        -1,
        -1.9059144258499146
      ],
      "type": "VEC3"
    },
    {
      "bufferView": 6,
      "componentType": 5126,
      "count": 846,
      "max": [
        1,
        1
      ],
      "min": [
        -8.940696716308594e-8,
        0.01000000536441803
      ],
      "type": "VEC2"
    },
    {
      "bufferView": 7,
      "componentType": 5125,
      "count": 1368,
      "max": [
        845
      ],
      "min": [
        0
      ],
      "type": "SCALAR"
    }
  ],
  "materials": [
    {
      "pbrMetallicRoughness": {
        "metallicFactor": 0,
        "roughnessFactor": 0.7763932022500211,
        "baseColorTexture": {
          "index": 0
        }
      },
      "doubleSided": true,
      "name": "Pack3"
    },
    {
      "pbrMetallicRoughness": {
        "baseColorFactor": [
          0.8,
          0.8,
          0.8,
          0
        ],
        "metallicFactor": 0,
        "roughnessFactor": 0
      },
      "alphaMode": "BLEND",
      "doubleSided": true,
      "name": "Collider"
    }
  ],
  "textures": [
    {
      "sampler": 0,
      "source": 0
    }
  ],
  "samplers": [
    {
      "magFilter": 9729,
      "minFilter": 9987,
      "wrapS": 10497,
      "wrapT": 10497
    }
  ],
  "images": [
    {
      "mimeType": "image/png",
      "uri": "data:image/png;base64,"
    }
  ],
  "meshes": [
    {
      "primitives": [
        {
          "mode": 4,
          "attributes": {
            "NORMAL": 0,
            "POSITION": 1,
            "TEXCOORD_0": 2
          },
          "indices": 3,
          "material": 0
        }
      ]
    },
    {
      "primitives": [
        {
          "mode": 4,
          "attributes": {
            "NORMAL": 4,
            "POSITION": 5,
            "TEXCOORD_0": 6
          },
          "indices": 7,
          "material": 1
        }
      ]
    }
  ]
}